<svg width="88" height="16" viewBox="0 0 88 16" fill="none" xmlns="http://www.w3.org/2000/svg">
<path d="M6.10227 3.60575C6.94671 2.09091 7.36892 1.3335 8.00016 1.3335C8.6314 1.3335 9.05362 2.09091 9.89805 3.60575L10.1165 3.99765C10.3565 4.42812 10.4765 4.64335 10.6635 4.78537C10.8506 4.92738 11.0836 4.9801 11.5496 5.08553L11.9738 5.18152C13.6136 5.55253 14.4335 5.73804 14.6285 6.36532C14.8236 6.99259 14.2647 7.64621 13.1468 8.95345L12.8576 9.29164C12.5399 9.66312 12.381 9.84886 12.3096 10.0786C12.2381 10.3084 12.2621 10.5562 12.3102 11.0519L12.3539 11.5031C12.5229 13.2472 12.6074 14.1193 12.0967 14.507C11.586 14.8947 10.8184 14.5412 9.28305 13.8343L8.88584 13.6514C8.44955 13.4505 8.2314 13.3501 8.00016 13.3501C7.76893 13.3501 7.55078 13.4505 7.11449 13.6514L6.71728 13.8343C5.18195 14.5412 4.41428 14.8947 3.90359 14.507C3.39291 14.1193 3.47742 13.2472 3.64643 11.5031L3.69015 11.0519C3.73818 10.5562 3.76219 10.3084 3.69074 10.0786C3.61928 9.84886 3.46045 9.66312 3.14278 9.29164L2.85356 8.95345C1.73566 7.64621 1.17671 6.99259 1.37178 6.36532C1.56684 5.73804 2.38673 5.55253 4.02652 5.18152L4.45075 5.08553C4.91673 4.9801 5.14972 4.92738 5.33679 4.78537C5.52387 4.64335 5.64385 4.42812 5.88381 3.99765L6.10227 3.60575Z" fill="#FEC84B"/>
<path d="M24.1023 3.60575C24.9467 2.09091 25.3689 1.3335 26.0002 1.3335C26.6314 1.3335 27.0536 2.09091 27.8981 3.60575L28.1165 3.99765C28.3565 4.42812 28.4765 4.64335 28.6635 4.78537C28.8506 4.92738 29.0836 4.9801 29.5496 5.08553L29.9738 5.18152C31.6136 5.55253 32.4335 5.73804 32.6285 6.36532C32.8236 6.99259 32.2647 7.64621 31.1468 8.95345L30.8576 9.29164C30.5399 9.66312 30.381 9.84886 30.3096 10.0786C30.2381 10.3084 30.2621 10.5562 30.3102 11.0519L30.3539 11.5031C30.5229 13.2472 30.6074 14.1193 30.0967 14.507C29.586 14.8947 28.8184 14.5412 27.283 13.8343L26.8858 13.6514C26.4495 13.4505 26.2314 13.3501 26.0002 13.3501C25.7689 13.3501 25.5508 13.4505 25.1145 13.6514L24.7173 13.8343C23.1819 14.5412 22.4143 14.8947 21.9036 14.507C21.3929 14.1193 21.4774 13.2472 21.6464 11.5031L21.6902 11.0519C21.7382 10.5562 21.7622 10.3084 21.6907 10.0786C21.6193 9.84886 21.4604 9.66312 21.1428 9.29164L20.8536 8.95345C19.7357 7.64621 19.1767 6.99259 19.3718 6.36532C19.5668 5.73804 20.3867 5.55253 22.0265 5.18152L22.4508 5.08553C22.9167 4.9801 23.1497 4.92738 23.3368 4.78537C23.5239 4.64335 23.6438 4.42812 23.8838 3.99765L24.1023 3.60575Z" fill="#FEC84B"/>
<path d="M42.1023 3.60575C42.9467 2.09091 43.3689 1.3335 44.0002 1.3335C44.6314 1.3335 45.0536 2.09091 45.8981 3.60575L46.1165 3.99765C46.3565 4.42812 46.4765 4.64335 46.6635 4.78537C46.8506 4.92738 47.0836 4.9801 47.5496 5.08553L47.9738 5.18152C49.6136 5.55253 50.4335 5.73804 50.6285 6.36532C50.8236 6.99259 50.2647 7.64621 49.1468 8.95345L48.8576 9.29164C48.5399 9.66312 48.381 9.84886 48.3096 10.0786C48.2381 10.3084 48.2621 10.5562 48.3102 11.0519L48.3539 11.5031C48.5229 13.2472 48.6074 14.1193 48.0967 14.507C47.586 14.8947 46.8184 14.5412 45.283 13.8343L44.8858 13.6514C44.4495 13.4505 44.2314 13.3501 44.0002 13.3501C43.7689 13.3501 43.5508 13.4505 43.1145 13.6514L42.7173 13.8343C41.1819 14.5412 40.4143 14.8947 39.9036 14.507C39.3929 14.1193 39.4774 13.2472 39.6464 11.5031L39.6902 11.0519C39.7382 10.5562 39.7622 10.3084 39.6907 10.0786C39.6193 9.84886 39.4604 9.66312 39.1428 9.29164L38.8536 8.95345C37.7357 7.64621 37.1767 6.99259 37.3718 6.36532C37.5668 5.73804 38.3867 5.55253 40.0265 5.18152L40.4508 5.08553C40.9167 4.9801 41.1497 4.92738 41.3368 4.78537C41.5239 4.64335 41.6438 4.42812 41.8838 3.99765L42.1023 3.60575Z" fill="#FEC84B"/>
<path d="M60.1023 3.60575C60.9467 2.09091 61.3689 1.3335 62.0002 1.3335C62.6314 1.3335 63.0536 2.09091 63.8981 3.60575L64.1165 3.99765C64.3565 4.42812 64.4765 4.64335 64.6635 4.78537C64.8506 4.92738 65.0836 4.9801 65.5496 5.08553L65.9738 5.18152C67.6136 5.55253 68.4335 5.73804 68.6285 6.36532C68.8236 6.99259 68.2647 7.64621 67.1468 8.95345L66.8576 9.29164C66.5399 9.66312 66.381 9.84886 66.3096 10.0786C66.2381 10.3084 66.2621 10.5562 66.3102 11.0519L66.3539 11.5031C66.5229 13.2472 66.6074 14.1193 66.0967 14.507C65.586 14.8947 64.8184 14.5412 63.283 13.8343L62.8858 13.6514C62.4495 13.4505 62.2314 13.3501 62.0002 13.3501C61.7689 13.3501 61.5508 13.4505 61.1145 13.6514L60.7173 13.8343C59.1819 14.5412 58.4143 14.8947 57.9036 14.507C57.3929 14.1193 57.4774 13.2472 57.6464 11.5031L57.6902 11.0519C57.7382 10.5562 57.7622 10.3084 57.6907 10.0786C57.6193 9.84886 57.4604 9.66312 57.1428 9.29164L56.8536 8.95345C55.7357 7.64621 55.1767 6.99259 55.3718 6.36532C55.5668 5.73804 56.3867 5.55253 58.0265 5.18152L58.4508 5.08553C58.9167 4.9801 59.1497 4.92738 59.3368 4.78537C59.5239 4.64335 59.6438 4.42812 59.8838 3.99765L60.1023 3.60575Z" fill="#FEC84B"/>
<path d="M78.1023 3.60575C78.9467 2.09091 79.3689 1.3335 80.0002 1.3335C80.6314 1.3335 81.0536 2.09091 81.8981 3.60575L82.1165 3.99765C82.3565 4.42812 82.4765 4.64335 82.6635 4.78537C82.8506 4.92738 83.0836 4.9801 83.5496 5.08553L83.9738 5.18152C85.6136 5.55253 86.4335 5.73804 86.6285 6.36532C86.8236 6.99259 86.2647 7.64621 85.1468 8.95345L84.8576 9.29164C84.5399 9.66312 84.381 9.84886 84.3096 10.0786C84.2381 10.3084 84.2621 10.5562 84.3102 11.0519L84.3539 11.5031C84.5229 13.2472 84.6074 14.1193 84.0967 14.507C83.586 14.8947 82.8184 14.5412 81.283 13.8343L80.8858 13.6514C80.4495 13.4505 80.2314 13.3501 80.0002 13.3501C79.7689 13.3501 79.5508 13.4505 79.1145 13.6514L78.7173 13.8343C77.1819 14.5412 76.4143 14.8947 75.9036 14.507C75.3929 14.1193 75.4774 13.2472 75.6464 11.5031L75.6902 11.0519C75.7382 10.5562 75.7622 10.3084 75.6907 10.0786C75.6193 9.84886 75.4604 9.66312 75.1428 9.29164L74.8536 8.95345C73.7357 7.64621 73.1767 6.99259 73.3718 6.36532C73.5668 5.73804 74.3867 5.55253 76.0265 5.18152L76.4508 5.08553C76.9167 4.9801 77.1497 4.92738 77.3368 4.78537C77.5239 4.64335 77.6438 4.42812 77.8838 3.99765L78.1023 3.60575Z" fill="#FEC84B"/>
</svg>
