<svg width="88" height="16" viewBox="0 0 88 16" fill="none" xmlns="http://www.w3.org/2000/svg">
<path d="M6.10227 3.60575C6.94671 2.09091 7.36892 1.3335 8.00016 1.3335C8.6314 1.3335 9.05362 2.09091 9.89805 3.60575L10.1165 3.99765C10.3565 4.42812 10.4765 4.64335 10.6635 4.78537C10.8506 4.92738 11.0836 4.9801 11.5496 5.08553L11.9738 5.18152C13.6136 5.55253 14.4335 5.73804 14.6285 6.36532C14.8236 6.99259 14.2647 7.64621 13.1468 8.95345L12.8576 9.29164C12.5399 9.66312 12.381 9.84886 12.3096 10.0786C12.2381 10.3084 12.2621 10.5562 12.3102 11.0519L12.3539 11.5031C12.5229 13.2472 12.6074 14.1193 12.0967 14.507C11.586 14.8947 10.8184 14.5412 9.28305 13.8343L8.88584 13.6514C8.44955 13.4505 8.2314 13.3501 8.00016 13.3501C7.76893 13.3501 7.55078 13.4505 7.11449 13.6514L6.71728 13.8343C5.18195 14.5412 4.41428 14.8947 3.90359 14.507C3.39291 14.1193 3.47742 13.2472 3.64643 11.5031L3.69015 11.0519C3.73818 10.5562 3.76219 10.3084 3.69074 10.0786C3.61928 9.84886 3.46045 9.66312 3.14278 9.29164L2.85356 8.95345C1.73566 7.64621 1.17671 6.99259 1.37178 6.36532C1.56684 5.73804 2.38673 5.55253 4.02652 5.18152L4.45075 5.08553C4.91673 4.9801 5.14972 4.92738 5.33679 4.78537C5.52387 4.64335 5.64385 4.42812 5.88381 3.99765L6.10227 3.60575Z" fill="#FEC84B"/>
<path d="M24.1023 3.60575C24.9467 2.09091 25.3689 1.3335 26.0002 1.3335C26.6314 1.3335 27.0536 2.09091 27.8981 3.60575L28.1165 3.99765C28.3565 4.42812 28.4765 4.64335 28.6635 4.78537C28.8506 4.92738 29.0836 4.9801 29.5496 5.08553L29.9738 5.18152C31.6136 5.55253 32.4335 5.73804 32.6285 6.36532C32.8236 6.99259 32.2647 7.64621 31.1468 8.95345L30.8576 9.29164C30.5399 9.66312 30.381 9.84886 30.3096 10.0786C30.2381 10.3084 30.2621 10.5562 30.3102 11.0519L30.3539 11.5031C30.5229 13.2472 30.6074 14.1193 30.0967 14.507C29.586 14.8947 28.8184 14.5412 27.283 13.8343L26.8858 13.6514C26.4495 13.4505 26.2314 13.3501 26.0002 13.3501C25.7689 13.3501 25.5508 13.4505 25.1145 13.6514L24.7173 13.8343C23.1819 14.5412 22.4143 14.8947 21.9036 14.507C21.3929 14.1193 21.4774 13.2472 21.6464 11.5031L21.6902 11.0519C21.7382 10.5562 21.7622 10.3084 21.6907 10.0786C21.6193 9.84886 21.4604 9.66312 21.1428 9.29164L20.8536 8.95345C19.7357 7.64621 19.1767 6.99259 19.3718 6.36532C19.5668 5.73804 20.3867 5.55253 22.0265 5.18152L22.4508 5.08553C22.9167 4.9801 23.1497 4.92738 23.3368 4.78537C23.5239 4.64335 23.6438 4.42812 23.8838 3.99765L24.1023 3.60575Z" fill="#FEC84B"/>
<path d="M42.1023 3.60575C42.9467 2.09091 43.3689 1.3335 44.0002 1.3335C44.6314 1.3335 45.0536 2.09091 45.8981 3.60575L46.1165 3.99765C46.3565 4.42812 46.4765 4.64335 46.6635 4.78537C46.8506 4.92738 47.0836 4.9801 47.5496 5.08553L47.9738 5.18152C49.6136 5.55253 50.4335 5.73804 50.6285 6.36532C50.8236 6.99259 50.2647 7.64621 49.1468 8.95345L48.8576 9.29164C48.5399 9.66312 48.381 9.84886 48.3096 10.0786C48.2381 10.3084 48.2621 10.5562 48.3102 11.0519L48.3539 11.5031C48.5229 13.2472 48.6074 14.1193 48.0967 14.507C47.586 14.8947 46.8184 14.5412 45.283 13.8343L44.8858 13.6514C44.4495 13.4505 44.2314 13.3501 44.0002 13.3501C43.7689 13.3501 43.5508 13.4505 43.1145 13.6514L42.7173 13.8343C41.1819 14.5412 40.4143 14.8947 39.9036 14.507C39.3929 14.1193 39.4774 13.2472 39.6464 11.5031L39.6902 11.0519C39.7382 10.5562 39.7622 10.3084 39.6907 10.0786C39.6193 9.84886 39.4604 9.66312 39.1428 9.29164L38.8536 8.95345C37.7357 7.64621 37.1767 6.99259 37.3718 6.36532C37.5668 5.73804 38.3867 5.55253 40.0265 5.18152L40.4508 5.08553C40.9167 4.9801 41.1497 4.92738 41.3368 4.78537C41.5239 4.64335 41.6438 4.42812 41.8838 3.99765L42.1023 3.60575Z" fill="#FEC84B"/>
<path d="M60.1023 3.60575C60.9467 2.09091 61.3689 1.3335 62.0002 1.3335C62.6314 1.3335 63.0536 2.09091 63.8981 3.60575L64.1165 3.99765C64.3565 4.42812 64.4765 4.64335 64.6635 4.78537C64.8506 4.92738 65.0836 4.9801 65.5496 5.08553L65.9738 5.18152C67.6136 5.55253 68.4335 5.73804 68.6285 6.36532C68.8236 6.99259 68.2647 7.64621 67.1468 8.95345L66.8576 9.29164C66.5399 9.66312 66.381 9.84886 66.3096 10.0786C66.2381 10.3084 66.2621 10.5562 66.3102 11.0519L66.3539 11.5031C66.5229 13.2472 66.6074 14.1193 66.0967 14.507C65.586 14.8947 64.8184 14.5412 63.283 13.8343L62.8858 13.6514C62.4495 13.4505 62.2314 13.3501 62.0002 13.3501C61.7689 13.3501 61.5508 13.4505 61.1145 13.6514L60.7173 13.8343C59.1819 14.5412 58.4143 14.8947 57.9036 14.507C57.3929 14.1193 57.4774 13.2472 57.6464 11.5031L57.6902 11.0519C57.7382 10.5562 57.7622 10.3084 57.6907 10.0786C57.6193 9.84886 57.4604 9.66312 57.1428 9.29164L56.8536 8.95345C55.7357 7.64621 55.1767 6.99259 55.3718 6.36532C55.5668 5.73804 56.3867 5.55253 58.0265 5.18152L58.4508 5.08553C58.9167 4.9801 59.1497 4.92738 59.3368 4.78537C59.5239 4.64335 59.6438 4.42812 59.8838 3.99765L60.1023 3.60575Z" fill="#FEC84B"/>
<path fill-rule="evenodd" clip-rule="evenodd" d="M79.5611 2.60977C79.3169 2.92861 79.0413 3.42054 78.641 4.13867L78.4378 4.50322C78.4255 4.52519 78.4134 4.54696 78.4015 4.56851C78.215 4.90412 78.0576 5.18739 77.8039 5.37993C77.5476 5.57455 77.235 5.64478 76.8718 5.72641C76.8485 5.73165 76.8249 5.73694 76.8012 5.74232L76.4066 5.83161C75.6281 6.00774 75.0985 6.12893 74.7358 6.27187C74.3818 6.41137 74.3071 6.52566 74.2786 6.61724C74.2486 6.7139 74.2477 6.86175 74.4593 7.1979C74.6741 7.53908 75.0364 7.96464 75.5663 8.58431L75.8353 8.8989C75.851 8.91718 75.8665 8.93526 75.8818 8.95315C76.1317 9.24467 76.3401 9.48774 76.4357 9.79512C76.5307 10.1006 76.4992 10.4217 76.461 10.811C76.4587 10.8348 76.4563 10.859 76.454 10.8834L76.4133 11.3031C76.3332 12.1292 76.2793 12.698 76.2975 13.1078C76.3157 13.5168 76.4021 13.6298 76.4708 13.682C76.5319 13.7283 76.6448 13.7797 77.0127 13.6743C77.3865 13.5671 77.8834 13.3398 78.6123 13.0042L78.9818 12.8341C79.0046 12.8236 79.0271 12.8132 79.0494 12.8029C79.3873 12.6467 79.6804 12.5112 80.0002 12.5112C80.3199 12.5112 80.613 12.6467 80.9509 12.8029C80.9732 12.8132 80.9958 12.8236 81.0185 12.8341L81.388 13.0042C82.1169 13.3398 82.6138 13.5671 82.9876 13.6743C83.3555 13.7797 83.4684 13.7283 83.5295 13.682C83.5982 13.6298 83.6846 13.5168 83.7028 13.1078C83.7211 12.698 83.6671 12.1292 83.587 11.3031L83.5464 10.8834C83.544 10.859 83.5416 10.8348 83.5393 10.811C83.5011 10.4217 83.4696 10.1006 83.5646 9.79512C83.6602 9.48774 83.8686 9.24467 84.1185 8.95314C84.1339 8.93525 84.1493 8.91718 84.165 8.8989L84.434 8.58431C84.9639 7.96464 85.3263 7.53908 85.541 7.1979C85.7526 6.86175 85.7518 6.7139 85.7217 6.61724C85.6932 6.52566 85.6185 6.41137 85.2645 6.27187C84.9018 6.12893 84.3722 6.00774 83.5938 5.8316L83.1991 5.74232C83.1754 5.73694 83.1518 5.73165 83.1285 5.7264C82.7653 5.64478 82.4528 5.57455 82.1964 5.37993C81.9427 5.18739 81.7853 4.90412 81.5989 4.56851C81.5869 4.54696 81.5748 4.52519 81.5625 4.50321L81.3593 4.13867C80.959 3.42054 80.6834 2.92861 80.4392 2.60977C80.1953 2.29124 80.0707 2.26369 80.0002 2.26369C79.9296 2.26369 79.805 2.29124 79.5611 2.60977ZM78.8226 2.04422C79.1182 1.65821 79.4835 1.3335 80.0002 1.3335C80.5168 1.3335 80.8821 1.65821 81.1778 2.04422C81.4682 2.42351 81.7762 2.97606 82.1526 3.65138L82.375 4.0503C82.6184 4.48698 82.6807 4.57974 82.7588 4.63904C82.834 4.69611 82.931 4.72795 83.4044 4.83506L83.8385 4.93328C84.5676 5.09821 85.1682 5.23408 85.6056 5.40646C86.0596 5.5854 86.457 5.84913 86.6099 6.34103C86.7613 6.82786 86.5912 7.27575 86.3282 7.69345C86.0727 8.0993 85.6647 8.57648 85.1662 9.15935L84.8719 9.50345C84.5513 9.87836 84.4843 9.9701 84.4529 10.0713C84.4208 10.1746 84.4238 10.2938 84.4722 10.7937L84.5166 11.2514C84.5921 12.0303 84.6536 12.6654 84.6321 13.1492C84.6101 13.6415 84.4983 14.1144 84.092 14.4229C83.678 14.7371 83.1964 14.7017 82.7314 14.5685C82.2806 14.4393 81.7186 14.1805 81.0361 13.8662L80.6295 13.679C80.1847 13.4742 80.0894 13.4414 80.0002 13.4414C79.9109 13.4414 79.8157 13.4742 79.3708 13.679L78.9642 13.8662C78.2818 14.1805 77.7197 14.4393 77.2689 14.5685C76.8039 14.7017 76.3223 14.7371 75.9084 14.4229C75.502 14.1144 75.3902 13.6415 75.3682 13.1492C75.3467 12.6654 75.4083 12.0303 75.4838 11.2514L75.5281 10.7937C75.5765 10.2938 75.5796 10.1746 75.5475 10.0713C75.516 9.9701 75.449 9.87836 75.1284 9.50345L74.8342 9.15938C74.3357 8.57649 73.9276 8.09931 73.6721 7.69345C73.4091 7.27575 73.239 6.82786 73.3904 6.34103C73.5434 5.84913 73.9407 5.5854 74.3947 5.40646C74.8322 5.23408 75.4328 5.09821 76.1618 4.93328L76.2013 4.92435L76.5959 4.83506C77.0693 4.72795 77.1663 4.69611 77.2415 4.63904C77.3196 4.57974 77.3819 4.48698 77.6253 4.0503L77.8477 3.65138C78.2241 2.97606 78.5321 2.42351 78.8226 2.04422Z" fill="#FEC84B"/>
<path fill-rule="evenodd" clip-rule="evenodd" d="M79.5611 2.60977C79.3169 2.92861 79.0413 3.42054 78.641 4.13867L78.4378 4.50322C78.4255 4.52519 78.4134 4.54696 78.4015 4.56851C78.215 4.90412 78.0576 5.18739 77.8039 5.37993C77.5476 5.57455 77.235 5.64478 76.8718 5.72641C76.8485 5.73165 76.8249 5.73694 76.8012 5.74232L76.4066 5.83161C75.6281 6.00774 75.0985 6.12893 74.7358 6.27187C74.3818 6.41137 74.3071 6.52566 74.2786 6.61724C74.2486 6.7139 74.2477 6.86175 74.4593 7.1979C74.6741 7.53908 75.0364 7.96464 75.5663 8.58431L75.8353 8.8989C75.851 8.91718 75.8665 8.93526 75.8818 8.95315C76.1317 9.24467 76.3401 9.48774 76.4357 9.79512C76.5307 10.1006 76.4992 10.4217 76.461 10.811C76.4587 10.8348 76.4563 10.859 76.454 10.8834L76.4133 11.3031C76.3332 12.1292 76.2793 12.698 76.2975 13.1078C76.3157 13.5168 76.4021 13.6298 76.4708 13.682C76.5319 13.7283 76.6448 13.7797 77.0127 13.6743C77.3865 13.5671 77.8834 13.3398 78.6123 13.0042L78.9818 12.8341C79.0046 12.8236 79.0271 12.8132 79.0494 12.8029C79.3873 12.6467 79.6804 12.5112 80.0002 12.5112C80.3199 12.5112 80.613 12.6467 80.9509 12.8029C80.9732 12.8132 80.9958 12.8236 81.0185 12.8341L81.388 13.0042C82.1169 13.3398 82.6138 13.5671 82.9876 13.6743C83.3555 13.7797 83.4684 13.7283 83.5295 13.682C83.5982 13.6298 83.6846 13.5168 83.7028 13.1078C83.7211 12.698 83.6671 12.1292 83.587 11.3031L83.5464 10.8834C83.544 10.859 83.5416 10.8348 83.5393 10.811C83.5011 10.4217 83.4696 10.1006 83.5646 9.79512C83.6602 9.48774 83.8686 9.24467 84.1185 8.95314C84.1339 8.93525 84.1493 8.91718 84.165 8.8989L84.434 8.58431C84.9639 7.96464 85.3263 7.53908 85.541 7.1979C85.7526 6.86175 85.7518 6.7139 85.7217 6.61724C85.6932 6.52566 85.6185 6.41137 85.2645 6.27187C84.9018 6.12893 84.3722 6.00774 83.5938 5.8316L83.1991 5.74232C83.1754 5.73694 83.1518 5.73165 83.1285 5.7264C82.7653 5.64478 82.4528 5.57455 82.1964 5.37993C81.9427 5.18739 81.7853 4.90412 81.5989 4.56851C81.5869 4.54696 81.5748 4.52519 81.5625 4.50321L81.3593 4.13867C80.959 3.42054 80.6834 2.92861 80.4392 2.60977C80.1953 2.29124 80.0707 2.26369 80.0002 2.26369C79.9296 2.26369 79.805 2.29124 79.5611 2.60977ZM78.8226 2.04422C79.1182 1.65821 79.4835 1.3335 80.0002 1.3335C80.5168 1.3335 80.8821 1.65821 81.1778 2.04422C81.4682 2.42351 81.7762 2.97606 82.1526 3.65138L82.375 4.0503C82.6184 4.48698 82.6807 4.57974 82.7588 4.63904C82.834 4.69611 82.931 4.72795 83.4044 4.83506L83.8385 4.93328C84.5676 5.09821 85.1682 5.23408 85.6056 5.40646C86.0596 5.5854 86.457 5.84913 86.6099 6.34103C86.7613 6.82786 86.5912 7.27575 86.3282 7.69345C86.0727 8.0993 85.6647 8.57648 85.1662 9.15935L84.8719 9.50345C84.5513 9.87836 84.4843 9.9701 84.4529 10.0713C84.4208 10.1746 84.4238 10.2938 84.4722 10.7937L84.5166 11.2514C84.5921 12.0303 84.6536 12.6654 84.6321 13.1492C84.6101 13.6415 84.4983 14.1144 84.092 14.4229C83.678 14.7371 83.1964 14.7017 82.7314 14.5685C82.2806 14.4393 81.7186 14.1805 81.0361 13.8662L80.6295 13.679C80.1847 13.4742 80.0894 13.4414 80.0002 13.4414C79.9109 13.4414 79.8157 13.4742 79.3708 13.679L78.9642 13.8662C78.2818 14.1805 77.7197 14.4393 77.2689 14.5685C76.8039 14.7017 76.3223 14.7371 75.9084 14.4229C75.502 14.1144 75.3902 13.6415 75.3682 13.1492C75.3467 12.6654 75.4083 12.0303 75.4838 11.2514L75.5281 10.7937C75.5765 10.2938 75.5796 10.1746 75.5475 10.0713C75.516 9.9701 75.449 9.87836 75.1284 9.50345L74.8342 9.15938C74.3357 8.57649 73.9276 8.09931 73.6721 7.69345C73.4091 7.27575 73.239 6.82786 73.3904 6.34103C73.5434 5.84913 73.9407 5.5854 74.3947 5.40646C74.8322 5.23408 75.4328 5.09821 76.1618 4.93328L76.2013 4.92435L76.5959 4.83506C77.0693 4.72795 77.1663 4.69611 77.2415 4.63904C77.3196 4.57974 77.3819 4.48698 77.6253 4.0503L77.8477 3.65138C78.2241 2.97606 78.5321 2.42351 78.8226 2.04422Z" fill="#FEC84B"/>
<path d="M79.5611 2.60977C79.3169 2.92861 79.0413 3.42054 78.641 4.13867L78.4378 4.50322L78.4015 4.56851C78.215 4.90412 78.0576 5.18739 77.8039 5.37993C77.5476 5.57455 77.235 5.64478 76.8718 5.72641L76.8012 5.74232L76.4066 5.83161C75.6281 6.00774 75.0985 6.12893 74.7358 6.27187C74.3818 6.41137 74.3071 6.52566 74.2786 6.61724C74.2486 6.7139 74.2477 6.86175 74.4593 7.1979C74.6741 7.53908 75.0364 7.96464 75.5663 8.58431L75.8353 8.8989L75.8818 8.95315C76.1317 9.24467 76.3401 9.48774 76.4357 9.79512C76.5307 10.1006 76.4992 10.4217 76.461 10.811L76.454 10.8834L76.4133 11.3031C76.3332 12.1292 76.2793 12.698 76.2975 13.1078C76.3157 13.5168 76.4021 13.6298 76.4708 13.682C76.5319 13.7283 76.6448 13.7797 77.0127 13.6743C77.3865 13.5671 77.8834 13.3398 78.6123 13.0042L78.9818 12.8341L79.0494 12.8029C79.3873 12.6467 79.6804 12.5112 80.0002 12.5112L76.2013 14.3059L75.8353 9.79512L73.6721 6.5L77.6253 4.93328L79.3708 2.26369H80.0002C79.9296 2.26369 79.805 2.29124 79.5611 2.60977Z" fill="#FEC84B"/>
<path d="M79.5611 2.60977C79.3169 2.92861 79.0413 3.42054 78.641 4.13867L78.4378 4.50322L78.4015 4.56851C78.215 4.90412 78.0576 5.18739 77.8039 5.37993C77.5476 5.57455 77.235 5.64478 76.8718 5.72641L76.8012 5.74232L76.4066 5.83161C75.6281 6.00774 75.0985 6.12893 74.7358 6.27187C74.3818 6.41137 74.3071 6.52566 74.2786 6.61724C74.2486 6.7139 74.2477 6.86175 74.4593 7.1979C74.6741 7.53908 75.0364 7.96464 75.5663 8.58431L75.8353 8.8989L75.8818 8.95315C76.1317 9.24467 76.3401 9.48774 76.4357 9.79512C76.5307 10.1006 76.4992 10.4217 76.461 10.811L76.454 10.8834L76.4133 11.3031C76.3332 12.1292 76.2793 12.698 76.2975 13.1078C76.3157 13.5168 76.4021 13.6298 76.4708 13.682C76.5319 13.7283 76.6448 13.7797 77.0127 13.6743C77.3865 13.5671 77.8834 13.3398 78.6123 13.0042L78.9818 12.8341L79.0494 12.8029C79.3873 12.6467 79.6804 12.5112 80.0002 12.5112L76.2013 14.3059L75.8353 9.79512L73.6721 6.5L77.6253 4.93328L79.3708 2.26369H80.0002C79.9296 2.26369 79.805 2.29124 79.5611 2.60977Z" fill="#FEC84B"/>
</svg>
